<svg id="visual" viewBox="0 0 960 540" width="960" height="540" xmlns="http://www.w3.org/2000/svg" xmlns:xlink="http://www.w3.org/1999/xlink" version="1.1"><rect x="0" y="0" width="960" height="540" fill="#001220"></rect><defs><linearGradient id="grad1_0" x1="43.8%" y1="100%" x2="100%" y2="0%"><stop offset="14.444444444444446%" stop-color="#fbae3c" stop-opacity="1"></stop><stop offset="85.55555555555554%" stop-color="#fbae3c" stop-opacity="1"></stop></linearGradient></defs><defs><linearGradient id="grad1_1" x1="43.8%" y1="100%" x2="100%" y2="0%"><stop offset="14.444444444444446%" stop-color="#fbae3c" stop-opacity="1"></stop><stop offset="85.55555555555554%" stop-color="#f48350" stop-opacity="1"></stop></linearGradient></defs><defs><linearGradient id="grad1_2" x1="43.8%" y1="100%" x2="100%" y2="0%"><stop offset="14.444444444444446%" stop-color="#d96162" stop-opacity="1"></stop><stop offset="85.55555555555554%" stop-color="#f48350" stop-opacity="1"></stop></linearGradient></defs><defs><linearGradient id="grad1_3" x1="43.8%" y1="100%" x2="100%" y2="0%"><stop offset="14.444444444444446%" stop-color="#d96162" stop-opacity="1"></stop><stop offset="85.55555555555554%" stop-color="#af4b6d" stop-opacity="1"></stop></linearGradient></defs><defs><linearGradient id="grad1_4" x1="43.8%" y1="100%" x2="100%" y2="0%"><stop offset="14.444444444444446%" stop-color="#7c3e6b" stop-opacity="1"></stop><stop offset="85.55555555555554%" stop-color="#af4b6d" stop-opacity="1"></stop></linearGradient></defs><defs><linearGradient id="grad1_5" x1="43.8%" y1="100%" x2="100%" y2="0%"><stop offset="14.444444444444446%" stop-color="#7c3e6b" stop-opacity="1"></stop><stop offset="85.55555555555554%" stop-color="#49335c" stop-opacity="1"></stop></linearGradient></defs><defs><linearGradient id="grad1_6" x1="43.8%" y1="100%" x2="100%" y2="0%"><stop offset="14.444444444444446%" stop-color="#1d2540" stop-opacity="1"></stop><stop offset="85.55555555555554%" stop-color="#49335c" stop-opacity="1"></stop></linearGradient></defs><defs><linearGradient id="grad1_7" x1="43.8%" y1="100%" x2="100%" y2="0%"><stop offset="14.444444444444446%" stop-color="#1d2540" stop-opacity="1"></stop><stop offset="85.55555555555554%" stop-color="#001220" stop-opacity="1"></stop></linearGradient></defs><defs><linearGradient id="grad2_0" x1="0%" y1="100%" x2="56.3%" y2="0%"><stop offset="14.444444444444446%" stop-color="#fbae3c" stop-opacity="1"></stop><stop offset="85.55555555555554%" stop-color="#fbae3c" stop-opacity="1"></stop></linearGradient></defs><defs><linearGradient id="grad2_1" x1="0%" y1="100%" x2="56.3%" y2="0%"><stop offset="14.444444444444446%" stop-color="#f48350" stop-opacity="1"></stop><stop offset="85.55555555555554%" stop-color="#fbae3c" stop-opacity="1"></stop></linearGradient></defs><defs><linearGradient id="grad2_2" x1="0%" y1="100%" x2="56.3%" y2="0%"><stop offset="14.444444444444446%" stop-color="#f48350" stop-opacity="1"></stop><stop offset="85.55555555555554%" stop-color="#d96162" stop-opacity="1"></stop></linearGradient></defs><defs><linearGradient id="grad2_3" x1="0%" y1="100%" x2="56.3%" y2="0%"><stop offset="14.444444444444446%" stop-color="#af4b6d" stop-opacity="1"></stop><stop offset="85.55555555555554%" stop-color="#d96162" stop-opacity="1"></stop></linearGradient></defs><defs><linearGradient id="grad2_4" x1="0%" y1="100%" x2="56.3%" y2="0%"><stop offset="14.444444444444446%" stop-color="#af4b6d" stop-opacity="1"></stop><stop offset="85.55555555555554%" stop-color="#7c3e6b" stop-opacity="1"></stop></linearGradient></defs><defs><linearGradient id="grad2_5" x1="0%" y1="100%" x2="56.3%" y2="0%"><stop offset="14.444444444444446%" stop-color="#49335c" stop-opacity="1"></stop><stop offset="85.55555555555554%" stop-color="#7c3e6b" stop-opacity="1"></stop></linearGradient></defs><defs><linearGradient id="grad2_6" x1="0%" y1="100%" x2="56.3%" y2="0%"><stop offset="14.444444444444446%" stop-color="#49335c" stop-opacity="1"></stop><stop offset="85.55555555555554%" stop-color="#1d2540" stop-opacity="1"></stop></linearGradient></defs><defs><linearGradient id="grad2_7" x1="0%" y1="100%" x2="56.3%" y2="0%"><stop offset="14.444444444444446%" stop-color="#001220" stop-opacity="1"></stop><stop offset="85.55555555555554%" stop-color="#1d2540" stop-opacity="1"></stop></linearGradient></defs><g transform="translate(960, 540)"><path d="M-324 0C-314 -32.2 -304.1 -64.5 -292.9 -95.2C-281.8 -125.9 -269.5 -155 -253.2 -184C-237 -212.9 -216.8 -241.7 -190.4 -262.1C-164 -282.5 -131.4 -294.5 -98.6 -303.4C-65.8 -312.3 -32.9 -318.1 0 -324L0 0Z" fill="#0c1c30"></path><path d="M-283.5 0C-274.8 -28.2 -266.1 -56.4 -256.3 -83.3C-246.6 -110.1 -235.8 -135.6 -221.6 -161C-207.4 -186.3 -189.7 -211.5 -166.6 -229.4C-143.5 -247.2 -114.9 -257.7 -86.3 -265.5C-57.6 -273.3 -28.8 -278.4 0 -283.5L0 0Z" fill="#312c4f"></path><path d="M-243 0C-235.5 -24.2 -228.1 -48.4 -219.7 -71.4C-211.3 -94.4 -202.1 -116.3 -189.9 -138C-177.7 -159.7 -162.6 -181.3 -142.8 -196.6C-123 -211.9 -98.5 -220.9 -73.9 -227.5C-49.3 -234.2 -24.7 -238.6 0 -243L0 0Z" fill="#623965"></path><path d="M-202.5 0C-196.3 -20.2 -190 -40.3 -183.1 -59.5C-176.1 -78.7 -168.4 -96.9 -158.3 -115C-148.1 -133.1 -135.5 -151.1 -119 -163.8C-102.5 -176.6 -82.1 -184 -61.6 -189.6C-41.1 -195.2 -20.6 -198.8 0 -202.5L0 0Z" fill="#96446e"></path><path d="M-162 0C-157 -16.1 -152 -32.2 -146.5 -47.6C-140.9 -62.9 -134.7 -77.5 -126.6 -92C-118.5 -106.5 -108.4 -120.9 -95.2 -131.1C-82 -141.3 -65.7 -147.2 -49.3 -151.7C-32.9 -156.1 -16.4 -159.1 0 -162L0 0Z" fill="#c55469"></path><path d="M-121.5 0C-117.8 -12.1 -114 -24.2 -109.8 -35.7C-105.7 -47.2 -101 -58.1 -95 -69C-88.9 -79.9 -81.3 -90.7 -71.4 -98.3C-61.5 -105.9 -49.3 -110.4 -37 -113.8C-24.7 -117.1 -12.3 -119.3 0 -121.5L0 0Z" fill="#e9705a"></path><path d="M-81 0C-78.5 -8.1 -76 -16.1 -73.2 -23.8C-70.4 -31.5 -67.4 -38.8 -63.3 -46C-59.2 -53.2 -54.2 -60.4 -47.6 -65.5C-41 -70.6 -32.8 -73.6 -24.6 -75.8C-16.4 -78.1 -8.2 -79.5 0 -81L0 0Z" fill="#fa9845"></path><path d="M-40.5 0C-39.3 -4 -38 -8.1 -36.6 -11.9C-35.2 -15.7 -33.7 -19.4 -31.7 -23C-29.6 -26.6 -27.1 -30.2 -23.8 -32.8C-20.5 -35.3 -16.4 -36.8 -12.3 -37.9C-8.2 -39 -4.1 -39.8 0 -40.5L0 0Z" fill="#fbae3c"></path></g><g transform="translate(0, 0)"><path d="M324 0C319.9 34.8 315.7 69.6 301.5 98C287.3 126.3 263 148.3 245.1 178.1C227.3 207.9 216 245.7 190.4 262.1C164.9 278.6 125.3 273.8 91.2 280.6C57.1 287.3 28.5 305.7 0 324L0 0Z" fill="#0c1c30"></path><path d="M283.5 0C279.9 30.4 276.2 60.9 263.8 85.7C251.4 110.5 230.1 129.7 214.5 155.8C198.9 181.9 189 214.9 166.6 229.4C144.3 243.8 109.6 239.6 79.8 245.5C49.9 251.4 25 267.5 0 283.5L0 0Z" fill="#312c4f"></path><path d="M243 0C239.9 26.1 236.8 52.2 226.1 73.5C215.4 94.7 197.2 111.2 183.8 133.6C170.5 155.9 162 184.2 142.8 196.6C123.7 208.9 93.9 205.3 68.4 210.4C42.8 215.5 21.4 229.2 0 243L0 0Z" fill="#623965"></path><path d="M202.5 0C199.9 21.7 197.3 43.5 188.4 61.2C179.5 79 164.3 92.7 153.2 111.3C142.1 130 135 153.5 119 163.8C103.1 174.1 78.3 171.1 57 175.4C35.7 179.6 17.8 191 0 202.5L0 0Z" fill="#96446e"></path><path d="M162 0C159.9 17.4 157.9 34.8 150.7 49C143.6 63.2 131.5 74.1 122.6 89C113.7 104 108 122.8 95.2 131.1C82.5 139.3 62.6 136.9 45.6 140.3C28.5 143.7 14.3 152.8 0 162L0 0Z" fill="#c55469"></path><path d="M121.5 0C119.9 13 118.4 26.1 113.1 36.7C107.7 47.4 98.6 55.6 91.9 66.8C85.2 78 81 92.1 71.4 98.3C61.8 104.5 47 102.7 34.2 105.2C21.4 107.7 10.7 114.6 0 121.5L0 0Z" fill="#e9705a"></path><path d="M81 0C80 8.7 78.9 17.4 75.4 24.5C71.8 31.6 65.7 37.1 61.3 44.5C56.8 52 54 61.4 47.6 65.5C41.2 69.6 31.3 68.4 22.8 70.1C14.3 71.8 7.1 76.4 0 81L0 0Z" fill="#fa9845"></path><path d="M40.5 0C40 4.3 39.5 8.7 37.7 12.2C35.9 15.8 32.9 18.5 30.6 22.3C28.4 26 27 30.7 23.8 32.8C20.6 34.8 15.7 34.2 11.4 35.1C7.1 35.9 3.6 38.2 0 40.5L0 0Z" fill="#fbae3c"></path></g></svg>