<svg id="visual" viewBox="0 0 960 540" width="960" height="540" xmlns="http://www.w3.org/2000/svg" xmlns:xlink="http://www.w3.org/1999/xlink" version="1.1"><rect x="0" y="0" width="960" height="540" fill="#001122"></rect><defs><linearGradient id="grad1_0" x1="43.8%" y1="100%" x2="100%" y2="0%"><stop offset="14.444444444444446%" stop-color="#b8b86a" stop-opacity="1"></stop><stop offset="85.55555555555554%" stop-color="#b8b86a" stop-opacity="1"></stop></linearGradient></defs><defs><linearGradient id="grad1_1" x1="43.8%" y1="100%" x2="100%" y2="0%"><stop offset="14.444444444444446%" stop-color="#b8b86a" stop-opacity="1"></stop><stop offset="85.55555555555554%" stop-color="#6c9b65" stop-opacity="1"></stop></linearGradient></defs><defs><linearGradient id="grad1_2" x1="43.8%" y1="100%" x2="100%" y2="0%"><stop offset="14.444444444444446%" stop-color="#297964" stop-opacity="1"></stop><stop offset="85.55555555555554%" stop-color="#6c9b65" stop-opacity="1"></stop></linearGradient></defs><defs><linearGradient id="grad1_3" x1="43.8%" y1="100%" x2="100%" y2="0%"><stop offset="14.444444444444446%" stop-color="#297964" stop-opacity="1"></stop><stop offset="85.55555555555554%" stop-color="#00555b" stop-opacity="1"></stop></linearGradient></defs><defs><linearGradient id="grad1_4" x1="43.8%" y1="100%" x2="100%" y2="0%"><stop offset="14.444444444444446%" stop-color="#003243" stop-opacity="1"></stop><stop offset="85.55555555555554%" stop-color="#00555b" stop-opacity="1"></stop></linearGradient></defs><defs><linearGradient id="grad1_5" x1="43.8%" y1="100%" x2="100%" y2="0%"><stop offset="14.444444444444446%" stop-color="#003243" stop-opacity="1"></stop><stop offset="85.55555555555554%" stop-color="#001122" stop-opacity="1"></stop></linearGradient></defs><defs><linearGradient id="grad2_0" x1="0%" y1="100%" x2="56.3%" y2="0%"><stop offset="14.444444444444446%" stop-color="#b8b86a" stop-opacity="1"></stop><stop offset="85.55555555555554%" stop-color="#b8b86a" stop-opacity="1"></stop></linearGradient></defs><defs><linearGradient id="grad2_1" x1="0%" y1="100%" x2="56.3%" y2="0%"><stop offset="14.444444444444446%" stop-color="#6c9b65" stop-opacity="1"></stop><stop offset="85.55555555555554%" stop-color="#b8b86a" stop-opacity="1"></stop></linearGradient></defs><defs><linearGradient id="grad2_2" x1="0%" y1="100%" x2="56.3%" y2="0%"><stop offset="14.444444444444446%" stop-color="#6c9b65" stop-opacity="1"></stop><stop offset="85.55555555555554%" stop-color="#297964" stop-opacity="1"></stop></linearGradient></defs><defs><linearGradient id="grad2_3" x1="0%" y1="100%" x2="56.3%" y2="0%"><stop offset="14.444444444444446%" stop-color="#00555b" stop-opacity="1"></stop><stop offset="85.55555555555554%" stop-color="#297964" stop-opacity="1"></stop></linearGradient></defs><defs><linearGradient id="grad2_4" x1="0%" y1="100%" x2="56.3%" y2="0%"><stop offset="14.444444444444446%" stop-color="#00555b" stop-opacity="1"></stop><stop offset="85.55555555555554%" stop-color="#003243" stop-opacity="1"></stop></linearGradient></defs><defs><linearGradient id="grad2_5" x1="0%" y1="100%" x2="56.3%" y2="0%"><stop offset="14.444444444444446%" stop-color="#001122" stop-opacity="1"></stop><stop offset="85.55555555555554%" stop-color="#003243" stop-opacity="1"></stop></linearGradient></defs><g transform="translate(960, 540)"><path d="M-378 0C-365.9 -64.5 -353.9 -129 -323.9 -187C-293.9 -245 -246 -296.6 -189 -327.4C-132 -358.1 -66 -368.1 0 -378L0 0Z" fill="#002133"></path><path d="M-315 0C-305 -53.7 -294.9 -107.5 -269.9 -155.8C-244.9 -204.2 -205 -247.2 -157.5 -272.8C-110 -298.4 -55 -306.7 0 -315L0 0Z" fill="#004351"></path><path d="M-252 0C-244 -43 -235.9 -86 -215.9 -124.7C-195.9 -163.4 -164 -197.7 -126 -218.2C-88 -238.7 -44 -245.4 0 -252L0 0Z" fill="#006761"></path><path d="M-189 0C-183 -32.2 -176.9 -64.5 -161.9 -93.5C-147 -122.5 -123 -148.3 -94.5 -163.7C-66 -179.1 -33 -184 0 -189L0 0Z" fill="#4a8b65"></path><path d="M-126 0C-122 -21.5 -118 -43 -108 -62.3C-98 -81.7 -82 -98.9 -63 -109.1C-44 -119.4 -22 -122.7 0 -126L0 0Z" fill="#91aa66"></path><path d="M-63 0C-61 -10.7 -59 -21.5 -54 -31.2C-49 -40.8 -41 -49.4 -31.5 -54.6C-22 -59.7 -11 -61.3 0 -63L0 0Z" fill="#b8b86a"></path></g><g transform="translate(0, 0)"><path d="M378 0C360.9 61.6 343.7 123.1 314.4 181.5C285 239.9 243.4 295.1 189 327.4C134.6 359.6 67.3 368.8 0 378L0 0Z" fill="#002133"></path><path d="M315 0C300.7 51.3 286.4 102.6 262 151.2C237.5 199.9 202.9 245.9 157.5 272.8C112.1 299.7 56.1 307.3 0 315L0 0Z" fill="#004351"></path><path d="M252 0C240.6 41 229.2 82.1 209.6 121C190 159.9 162.3 196.8 126 218.2C89.7 239.7 44.9 245.9 0 252L0 0Z" fill="#006761"></path><path d="M189 0C180.4 30.8 171.9 61.6 157.2 90.7C142.5 119.9 121.7 147.6 94.5 163.7C67.3 179.8 33.6 184.4 0 189L0 0Z" fill="#4a8b65"></path><path d="M126 0C120.3 20.5 114.6 41 104.8 60.5C95 80 81.1 98.4 63 109.1C44.9 119.9 22.4 122.9 0 126L0 0Z" fill="#91aa66"></path><path d="M63 0C60.1 10.3 57.3 20.5 52.4 30.2C47.5 40 40.6 49.2 31.5 54.6C22.4 59.9 11.2 61.5 0 63L0 0Z" fill="#b8b86a"></path></g></svg>