<svg id="visual" viewBox="0 0 400 800" width="400" height="800" xmlns="http://www.w3.org/2000/svg" xmlns:xlink="http://www.w3.org/1999/xlink" version="1.1"><rect x="0" y="0" width="400" height="800" fill="#001122"></rect><defs><linearGradient id="grad1_0" x1="0%" y1="100%" x2="100%" y2="0%"><stop offset="30%" stop-color="#b8b86a" stop-opacity="1"></stop><stop offset="70%" stop-color="#b8b86a" stop-opacity="1"></stop></linearGradient></defs><defs><linearGradient id="grad1_1" x1="0%" y1="100%" x2="100%" y2="0%"><stop offset="30%" stop-color="#b8b86a" stop-opacity="1"></stop><stop offset="70%" stop-color="#6c9b65" stop-opacity="1"></stop></linearGradient></defs><defs><linearGradient id="grad1_2" x1="0%" y1="100%" x2="100%" y2="0%"><stop offset="30%" stop-color="#297964" stop-opacity="1"></stop><stop offset="70%" stop-color="#6c9b65" stop-opacity="1"></stop></linearGradient></defs><defs><linearGradient id="grad1_3" x1="0%" y1="100%" x2="100%" y2="0%"><stop offset="30%" stop-color="#297964" stop-opacity="1"></stop><stop offset="70%" stop-color="#00555b" stop-opacity="1"></stop></linearGradient></defs><defs><linearGradient id="grad1_4" x1="0%" y1="100%" x2="100%" y2="0%"><stop offset="30%" stop-color="#003243" stop-opacity="1"></stop><stop offset="70%" stop-color="#00555b" stop-opacity="1"></stop></linearGradient></defs><defs><linearGradient id="grad1_5" x1="0%" y1="100%" x2="100%" y2="0%"><stop offset="30%" stop-color="#003243" stop-opacity="1"></stop><stop offset="70%" stop-color="#001122" stop-opacity="1"></stop></linearGradient></defs><defs><linearGradient id="grad2_0" x1="0%" y1="100%" x2="100%" y2="0%"><stop offset="30%" stop-color="#b8b86a" stop-opacity="1"></stop><stop offset="70%" stop-color="#b8b86a" stop-opacity="1"></stop></linearGradient></defs><defs><linearGradient id="grad2_1" x1="0%" y1="100%" x2="100%" y2="0%"><stop offset="30%" stop-color="#6c9b65" stop-opacity="1"></stop><stop offset="70%" stop-color="#b8b86a" stop-opacity="1"></stop></linearGradient></defs><defs><linearGradient id="grad2_2" x1="0%" y1="100%" x2="100%" y2="0%"><stop offset="30%" stop-color="#6c9b65" stop-opacity="1"></stop><stop offset="70%" stop-color="#297964" stop-opacity="1"></stop></linearGradient></defs><defs><linearGradient id="grad2_3" x1="0%" y1="100%" x2="100%" y2="0%"><stop offset="30%" stop-color="#00555b" stop-opacity="1"></stop><stop offset="70%" stop-color="#297964" stop-opacity="1"></stop></linearGradient></defs><defs><linearGradient id="grad2_4" x1="0%" y1="100%" x2="100%" y2="0%"><stop offset="30%" stop-color="#00555b" stop-opacity="1"></stop><stop offset="70%" stop-color="#003243" stop-opacity="1"></stop></linearGradient></defs><defs><linearGradient id="grad2_5" x1="0%" y1="100%" x2="100%" y2="0%"><stop offset="30%" stop-color="#001122" stop-opacity="1"></stop><stop offset="70%" stop-color="#003243" stop-opacity="1"></stop></linearGradient></defs><g transform="translate(400, 800)"><path d="M-360 0C-351.2 -64 -342.4 -128.1 -311.8 -180C-281.1 -231.9 -228.6 -271.7 -173 -299.6C-117.4 -327.6 -58.7 -343.8 0 -360L0 0Z" fill="#002133"></path><path d="M-300 0C-292.7 -53.4 -285.4 -106.7 -259.8 -150C-234.3 -193.3 -190.5 -226.4 -144.2 -249.7C-97.8 -273 -48.9 -286.5 0 -300L0 0Z" fill="#004351"></path><path d="M-240 0C-234.1 -42.7 -228.3 -85.4 -207.8 -120C-187.4 -154.6 -152.4 -181.1 -115.3 -199.8C-78.3 -218.4 -39.1 -229.2 0 -240L0 0Z" fill="#006761"></path><path d="M-180 0C-175.6 -32 -171.2 -64 -155.9 -90C-140.6 -116 -114.3 -135.8 -86.5 -149.8C-58.7 -163.8 -29.3 -171.9 0 -180L0 0Z" fill="#4a8b65"></path><path d="M-120 0C-117.1 -21.3 -114.1 -42.7 -103.9 -60C-93.7 -77.3 -76.2 -90.6 -57.7 -99.9C-39.1 -109.2 -19.6 -114.6 0 -120L0 0Z" fill="#91aa66"></path><path d="M-60 0C-58.5 -10.7 -57.1 -21.3 -52 -30C-46.9 -38.7 -38.1 -45.3 -28.8 -49.9C-19.6 -54.6 -9.8 -57.3 0 -60L0 0Z" fill="#b8b86a"></path></g><g transform="translate(0, 0)"><path d="M360 0C348.4 61.4 336.9 122.7 308.3 178C279.8 233.3 234.2 282.5 180 311.8C125.8 341.1 62.9 350.5 0 360L0 0Z" fill="#002133"></path><path d="M300 0C290.4 51.1 280.7 102.3 256.9 148.3C233.1 194.4 195.2 235.4 150 259.8C104.8 284.2 52.4 292.1 0 300L0 0Z" fill="#004351"></path><path d="M240 0C232.3 40.9 224.6 81.8 205.5 118.7C186.5 155.5 156.1 188.3 120 207.8C83.9 227.4 41.9 233.7 0 240L0 0Z" fill="#006761"></path><path d="M180 0C174.2 30.7 168.4 61.4 154.2 89C139.9 116.6 117.1 141.2 90 155.9C62.9 170.5 31.4 175.3 0 180L0 0Z" fill="#4a8b65"></path><path d="M120 0C116.1 20.5 112.3 40.9 102.8 59.3C93.3 77.8 78.1 94.2 60 103.9C41.9 113.7 21 116.8 0 120L0 0Z" fill="#91aa66"></path><path d="M60 0C58.1 10.2 56.1 20.5 51.4 29.7C46.6 38.9 39 47.1 30 52C21 56.8 10.5 58.4 0 60L0 0Z" fill="#b8b86a"></path></g></svg>